<svg xmlns="http://www.w3.org/2000/svg" viewBox="0 0 680 392" font-family="-apple-system, BlinkMacSystemFont, 'Segoe UI', Roboto, 'Helvetica Neue', Arial, sans-serif">
  <defs>
    <marker id="g2" viewBox="0 0 10 10" refX="9" refY="5" markerWidth="7" markerHeight="7" orient="auto-start-reverse">
      <path d="M 0 0 L 10 5 L 0 10 z" fill="#2b7a4b"/>
    </marker>
    <marker id="p2" viewBox="0 0 10 10" refX="9" refY="5" markerWidth="7" markerHeight="7" orient="auto-start-reverse">
      <path d="M 0 0 L 10 5 L 0 10 z" fill="#d23669"/>
    </marker>
    <marker id="b2" viewBox="0 0 10 10" refX="9" refY="5" markerWidth="7" markerHeight="7" orient="auto-start-reverse">
      <path d="M 0 0 L 10 5 L 0 10 z" fill="#3b6ec7"/>
    </marker>
  </defs>

  <rect x="20" y="20" width="270" height="104" rx="12" fill="#fdf7f9" stroke="#d23669" stroke-width="2"/>
  <text x="155" y="46" font-size="10" font-weight="700" letter-spacing="1.2" fill="#d23669" text-anchor="middle">WEB EDITOR · browser</text>
  <text x="155" y="70" font-size="12" font-family="ui-monospace, 'SF Mono', Menlo, monospace" fill="#ad2955" text-anchor="middle">CodeMirror / MDXEditor</text>
  <text x="155" y="92" font-size="10.5" fill="#6b6b6b" text-anchor="middle">autosave · planSync after each reply</text>

  <rect x="390" y="20" width="270" height="104" rx="12" fill="#fbfaf8" stroke="#b8b2a7" stroke-width="1.5"/>
  <text x="525" y="46" font-size="10" font-weight="700" letter-spacing="1.2" fill="#6b6b6b" text-anchor="middle">AGENT · Flue tools</text>
  <text x="525" y="70" font-size="12" font-family="ui-monospace, 'SF Mono', Menlo, monospace" fill="#ad2955" text-anchor="middle">writeFile · openFile · readFile</text>
  <text x="525" y="92" font-size="10.5" fill="#6b6b6b" text-anchor="middle">addresses files by bare name</text>

  <rect x="190" y="278" width="300" height="96" rx="12" fill="#faf9f6" stroke="#7d7669" stroke-width="2" stroke-dasharray="7 5"/>
  <text x="340" y="304" font-size="10" font-weight="800" letter-spacing="1.3" fill="#7d7669" text-anchor="middle">ONE SHARED WORKSPACE</text>
  <text x="340" y="328" font-size="11.5" font-family="ui-monospace, 'SF Mono', Menlo, monospace" fill="#ad2955" text-anchor="middle">lesson-1.ts · lesson-2.ts · …</text>
  <text x="340" y="350" font-size="11" font-family="ui-monospace, 'SF Mono', Menlo, monospace" fill="#9b958c" text-anchor="middle">.open-request (hidden)</text>

  <path d="M 150 124 C 150 210, 215 220, 245 276" fill="none" stroke="#2b7a4b" stroke-width="2" marker-end="url(#g2)"/>
  <text x="120" y="200" font-size="10.5" fill="#2b7a4b" text-anchor="middle">autosave →</text>
  <text x="120" y="216" font-size="10.5" fill="#2b7a4b" text-anchor="middle">PUT /files</text>

  <path d="M 530 124 C 530 210, 470 222, 440 276" fill="none" stroke="#2b7a4b" stroke-width="2" marker-end="url(#g2)"/>
  <text x="566" y="196" font-size="10.5" fill="#2b7a4b" text-anchor="middle">writeFile</text>
  <path d="M 480 124 C 470 196, 430 230, 400 276" fill="none" stroke="#d23669" stroke-width="2" marker-end="url(#p2)"/>
  <text x="436" y="170" font-size="10.5" fill="#d23669" text-anchor="middle">openFile →</text>
  <text x="436" y="185" font-size="10.5" fill="#d23669" text-anchor="middle">.open-request</text>

  <path d="M 215 278 C 150 235, 150 200, 175 126" fill="none" stroke="#3b6ec7" stroke-width="2" marker-end="url(#b2)"/>
  <text x="246" y="250" font-size="10.5" fill="#3b6ec7" text-anchor="middle">GET files +</text>
  <text x="246" y="266" font-size="10.5" fill="#3b6ec7" text-anchor="middle">open-request</text>
</svg>
